<svg width="31" height="24" viewBox="0 0 31 24" fill="none" xmlns="http://www.w3.org/2000/svg">
<path d="M15.7388 6.95188L29.253 0.994651C29.7098 0.789744 29.5635 -1.52588e-05 29.063 -1.52588e-05H1.36119C0.860607 -1.52588e-05 0.714368 0.789744 1.17111 0.994651L14.6854 6.95188C15.0204 7.10217 15.4038 7.10217 15.7388 6.95188Z" fill="black"/>
<path d="M16.2355 9.65599L16.2619 23.1956C16.2761 24.1079 17.1846 24.2729 17.7056 23.5134L30.2691 4.04852C30.6246 3.46399 30.0605 2.79871 29.2312 3.19081L16.7126 8.83188C16.3187 9.02868 16.2355 9.25097 16.2355 9.65599Z" fill="black"/>
<path d="M14.142 9.65599L14.1155 23.1956C14.1013 24.1079 13.1929 24.2729 12.6719 23.5134L1.69771 6.51081L1.4623 6.14612L1.26241 5.83636L1.25654 5.82729L0.108381 4.04852C-0.247139 3.46399 0.316914 2.79871 1.14625 3.19081L13.6649 8.83188C13.6883 8.84361 13.7107 8.85545 13.7321 8.8674C13.8927 8.95743 13.9934 9.05428 14.0547 9.17257C14.1219 9.30207 14.142 9.45695 14.142 9.65599Z" fill="black"/>
</svg>
