<svg width="42" height="42" viewBox="0 0 42 42" fill="none" xmlns="http://www.w3.org/2000/svg">
<g clip-path="url(#clip0_54_2)">
<path fill-rule="evenodd" clip-rule="evenodd" d="M39.333 12.4505V8.52739C39.333 8.16348 39.0362 7.86674 38.6723 7.86674H37.3715C37.0076 7.86674 36.7108 7.56985 36.7108 7.20593V5.90518C36.7108 5.54126 36.4139 5.24448 36.0501 5.24448H34.7493C34.3854 5.24448 34.0887 4.94764 34.0887 4.58372V3.28292C34.0887 2.919 33.7919 2.62221 33.428 2.62221H29.5049C29.141 2.62221 28.8443 2.32548 28.8443 1.96156V0.660758C28.8443 0.29684 28.5474 0 28.1836 0C23.3795 0 18.5756 0 13.7715 0C13.4076 0 13.1108 0.29684 13.1108 0.660758V1.96156C13.1108 2.32548 12.8141 2.62221 12.4502 2.62221H8.52713C8.16321 2.62221 7.86645 2.919 7.86645 3.28292V4.58372C7.86645 4.94764 7.56957 5.24448 7.20576 5.24448H5.90499C5.54107 5.24448 5.24431 5.54126 5.24431 5.90518V7.20593C5.24431 7.56985 4.94753 7.86674 4.58361 7.86674H3.28284C2.91892 7.86674 2.62215 8.16348 2.62215 8.52739V12.4505C2.62215 12.8144 2.32528 13.1111 1.96147 13.1111H0.660693C0.296775 13.1111 0 13.4079 0 13.7718V28.1839C0 28.5478 0.296882 28.8446 0.660693 28.8446H1.96147C2.32538 28.8446 2.62215 29.1414 2.62215 29.5053V33.4284C2.62215 33.7923 2.91892 34.0891 3.28284 34.0891H4.58361C4.94753 34.0891 5.24431 34.3858 5.24431 34.7497V36.0505C5.24431 36.4144 5.54117 36.7113 5.90499 36.7113H7.20576C7.56968 36.7113 7.86645 37.0081 7.86645 37.372V38.6728C7.86645 39.0367 8.16321 39.3335 8.52713 39.3335H12.4502C12.8141 39.3335 13.1108 39.6303 13.1108 39.9942V41.295C13.1108 41.659 13.4076 41.9557 13.7715 41.9557C18.5756 41.9557 23.3795 41.9557 28.1836 41.9557C28.5475 41.9557 28.8443 41.659 28.8443 41.295V39.9942C28.8443 39.6303 29.141 39.3335 29.5049 39.3335H33.428C33.7919 39.3335 34.0887 39.0367 34.0887 38.6728V37.372C34.0887 37.0081 34.3854 36.7113 34.7493 36.7113H36.0501C36.414 36.7113 36.7108 36.4144 36.7108 36.0505V34.7497C36.7108 34.3858 37.0076 34.0891 37.3715 34.0891H38.6723C39.0362 34.0891 39.333 33.7923 39.333 33.4284V29.5053C39.333 29.1414 39.6297 28.8446 39.9936 28.8446H41.2944C41.6583 28.8446 41.9551 28.5478 41.9551 28.1839V13.7718C41.9551 13.4079 41.6583 13.1111 41.2944 13.1111H39.9936C39.6297 13.1112 39.333 12.8145 39.333 12.4505Z" fill="#7B00FF"/>
<path fill-rule="evenodd" clip-rule="evenodd" d="M36.7096 15.0725V13.111V11.1495C36.7096 10.7856 36.4128 10.4888 36.049 10.4888H34.7482C34.3843 10.4888 34.0875 10.192 34.0875 9.82805V8.52725C34.0875 8.16333 33.7907 7.8666 33.4268 7.8666H32.126C31.7621 7.8666 31.4654 7.56971 31.4654 7.20579V5.90504C31.4654 5.54112 31.1686 5.24433 30.8047 5.24433H28.8432H26.8816C26.5177 5.24433 26.221 4.94749 26.221 4.58358V3.28278C26.221 2.91886 25.9242 2.62207 25.5603 2.62207H23.5987H20.9764H18.3542H16.3926C16.0287 2.62207 15.7319 2.91886 15.7319 3.28278V4.58358C15.7319 4.94749 15.4352 5.24433 15.0713 5.24433H13.1097H11.1482C10.7843 5.24433 10.4875 5.54112 10.4875 5.90504V7.20579C10.4875 7.56971 10.1908 7.8666 9.82687 7.8666H8.52608C8.16216 7.8666 7.8654 8.16333 7.8654 8.52725V9.82805C7.8654 10.192 7.56852 10.4888 7.20471 10.4888H5.90393C5.54002 10.4888 5.24325 10.7856 5.24325 11.1495V13.111V15.0725C5.24325 15.4364 4.94648 15.7332 4.58256 15.7332H3.28179C2.91787 15.7332 2.62109 16.03 2.62109 16.3939V25.5615C2.62109 25.9254 2.91787 26.2223 3.28179 26.2223H4.58256C4.94648 26.2223 5.24325 26.519 5.24325 26.8829V28.8445V30.806C5.24325 31.1699 5.54012 31.4667 5.90393 31.4667H7.20471C7.56862 31.4667 7.8654 31.7635 7.8654 32.1275V33.4282C7.8654 33.7921 8.16216 34.0889 8.52608 34.0889H9.82687C10.1908 34.0889 10.4875 34.3857 10.4875 34.7496V36.0504C10.4875 36.4143 10.7844 36.7112 11.1482 36.7112H13.1097H15.0713C15.4352 36.7112 15.7319 37.0079 15.7319 37.3718V38.6726C15.7319 39.0366 16.0288 39.3334 16.3926 39.3334H18.3542H20.9764H23.5987H25.5603C25.9242 39.3334 26.221 39.0366 26.221 38.6726V37.3718C26.221 37.0079 26.5178 36.7112 26.8816 36.7112H28.8432H30.8047C31.1686 36.7112 31.4654 36.4143 31.4654 36.0504V34.7496C31.4654 34.3857 31.7622 34.0889 32.126 34.0889H33.4268C33.7907 34.0889 34.0875 33.7921 34.0875 33.4282V32.1275C34.0875 31.7635 34.3843 31.4667 34.7482 31.4667H36.049C36.4129 31.4667 36.7096 31.1699 36.7096 30.806V28.8445V26.8829C36.7096 26.519 37.0064 26.2223 37.3703 26.2223H38.6711C39.035 26.2223 39.3318 25.9254 39.3318 25.5615V16.3939C39.3318 16.03 39.035 15.7332 38.6711 15.7332H37.3703C37.0064 15.7332 36.7096 15.4364 36.7096 15.0725Z" fill="#8F28FF"/>
<path fill-rule="evenodd" clip-rule="evenodd" d="M31.468 12.4501V11.1493C31.468 10.7854 31.1712 10.4886 30.8073 10.4886H29.5065C29.1426 10.4886 28.8458 10.1918 28.8458 9.82786V8.52706C28.8458 8.16314 28.549 7.8664 28.1851 7.8664H26.2236H24.2621C23.8982 7.8664 23.6014 7.56951 23.6014 7.20559V5.90485C23.6014 5.54093 23.3047 5.24414 22.9408 5.24414H20.9792H19.0176C18.6537 5.24414 18.3569 5.54093 18.3569 5.90485V7.20559C18.3569 7.56951 18.0601 7.8664 17.6962 7.8664H15.7347H13.7732C13.4093 7.8664 13.1125 8.16314 13.1125 8.52706V9.82786C13.1125 10.1918 12.8158 10.4886 12.4519 10.4886H11.1511C10.7871 10.4886 10.4904 10.7854 10.4904 11.1493V12.4501C10.4904 12.814 10.1936 13.1108 9.82971 13.1108H8.52892C8.165 13.1108 7.86824 13.4076 7.86824 13.7715V15.733V17.6945C7.86824 18.0585 7.57136 18.3553 7.20755 18.3553H5.90677C5.54286 18.3553 5.24609 18.6521 5.24609 19.016V20.9775V22.939C5.24609 23.3029 5.54296 23.5997 5.90677 23.5997H7.20755C7.57147 23.5997 7.86824 23.8965 7.86824 24.2604V26.2219V28.1834C7.86824 28.5474 8.165 28.8442 8.52892 28.8442H9.82971C10.1936 28.8442 10.4904 29.141 10.4904 29.5049V30.8057C10.4904 31.1696 10.7873 31.4664 11.1511 31.4664H12.4519C12.8158 31.4664 13.1125 31.7633 13.1125 32.1272V33.4279C13.1125 33.7918 13.4093 34.0886 13.7732 34.0886H15.7347H17.6962C18.0602 34.0886 18.3569 34.3854 18.3569 34.7493V36.0501C18.3569 36.414 18.6537 36.7109 19.0176 36.7109H20.9792H22.9408C23.3047 36.7109 23.6014 36.414 23.6014 36.0501V34.7493C23.6014 34.3854 23.8982 34.0886 24.2621 34.0886H26.2236H28.1851C28.5491 34.0886 28.8458 33.7918 28.8458 33.4279V32.1272C28.8458 31.7633 29.1426 31.4664 29.5065 31.4664H30.8073C31.1712 31.4664 31.468 31.1696 31.468 30.8057V29.5049C31.468 29.141 31.7648 28.8442 32.1287 28.8442H33.4294C33.7934 28.8442 34.0901 28.5474 34.0901 28.1834V26.2219V24.2604C34.0901 23.8965 34.3869 23.5997 34.7508 23.5997H36.0516C36.4155 23.5997 36.7123 23.3029 36.7123 22.939V20.9775V19.016C36.7123 18.6521 36.4154 18.3553 36.0516 18.3553H34.7508C34.3869 18.3553 34.0901 18.0585 34.0901 17.6945V15.733V13.7715C34.0901 13.4076 33.7934 13.1108 33.4294 13.1108H32.1287C31.7648 13.1109 31.468 12.8141 31.468 12.4501Z" fill="#A34EFF"/>
<path fill-rule="evenodd" clip-rule="evenodd" d="M26.2216 12.4498V11.149C26.2216 10.7851 25.9248 10.4883 25.5609 10.4883H23.5993H20.9771H18.3548H16.3933C16.0293 10.4883 15.7326 10.7851 15.7326 11.149V12.4498C15.7326 12.8138 15.4358 13.1105 15.0719 13.1105H13.7711C13.4072 13.1105 13.1104 13.4073 13.1104 13.7712V15.072C13.1104 15.4359 12.8137 15.7328 12.4497 15.7328H11.149C10.785 15.7328 10.4883 16.0295 10.4883 16.3935V18.355V20.9773V23.5995V25.561C10.4883 25.9249 10.7851 26.2218 11.149 26.2218H12.4497C12.8137 26.2218 13.1104 26.5185 13.1104 26.8825V28.1833C13.1104 28.5472 13.4072 28.844 13.7711 28.844H15.0719C15.4358 28.844 15.7326 29.1408 15.7326 29.5047V30.8055C15.7326 31.1694 16.0294 31.4662 16.3933 31.4662H18.3548H20.9771H23.5993H25.5609C25.9248 31.4662 26.2216 31.1694 26.2216 30.8055V29.5047C26.2216 29.1408 26.5185 28.844 26.8823 28.844H28.1831C28.547 28.844 28.8437 28.5472 28.8437 28.1833V26.8825C28.8437 26.5185 29.1405 26.2218 29.5044 26.2218H30.8052C31.1691 26.2218 31.4659 25.9249 31.4659 25.561V23.5995V20.9773V18.355V16.3935C31.4659 16.0295 31.1691 15.7328 30.8052 15.7328H29.5044C29.1405 15.7328 28.8437 15.4359 28.8437 15.072V13.7712C28.8437 13.4073 28.5469 13.1105 28.1831 13.1105H26.8823C26.5184 13.1106 26.2216 12.8139 26.2216 12.4498Z" fill="#B571FF"/>
<path fill-rule="evenodd" clip-rule="evenodd" d="M13.1094 20.978V22.9395C13.1094 23.3034 13.4061 23.6002 13.7701 23.6002H15.0708C15.4348 23.6002 15.7315 23.897 15.7315 24.2609V25.5617C15.7315 25.9256 16.0284 26.2225 16.3922 26.2225H17.693C18.0569 26.2225 18.3537 26.5192 18.3537 26.8831V28.1839C18.3537 28.5479 18.6504 28.8447 19.0143 28.8447H20.9759H22.9375C23.3014 28.8447 23.5982 28.5479 23.5982 28.1839V26.8831C23.5982 26.5192 23.8949 26.2225 24.2588 26.2225H25.5596C25.9236 26.2225 26.2203 25.9256 26.2203 25.5617V24.2609C26.2203 23.897 26.5172 23.6002 26.881 23.6002H28.1818C28.5457 23.6002 28.8425 23.3034 28.8425 22.9395V20.978V19.0165C28.8425 18.6526 28.5456 18.3558 28.1818 18.3558H26.881C26.5171 18.3558 26.2203 18.059 26.2203 17.695V16.3942C26.2203 16.0303 25.9236 15.7335 25.5596 15.7335H24.2588C23.8949 15.7335 23.5982 15.4367 23.5982 15.0728V13.772C23.5982 13.4081 23.3014 13.1113 22.9375 13.1113H20.9759H19.0143C18.6504 13.1113 18.3537 13.4081 18.3537 13.772V15.0728C18.3537 15.4367 18.0568 15.7335 17.693 15.7335H16.3922C16.0283 15.7335 15.7315 16.0303 15.7315 16.3942V17.695C15.7315 18.059 15.4348 18.3558 15.0708 18.3558H13.7701C13.4061 18.3558 13.1094 18.6526 13.1094 19.0165V20.978Z" fill="#CB9AFF"/>
<path fill-rule="evenodd" clip-rule="evenodd" d="M18.3516 20.9776V22.9392C18.3516 23.3031 18.6483 23.5999 19.0122 23.5999H20.9738H22.9354C23.2993 23.5999 23.5961 23.3031 23.5961 22.9392V20.9776V19.0162C23.5961 18.6523 23.2993 18.3555 22.9354 18.3555H20.9738H19.0122C18.6483 18.3555 18.3516 18.6523 18.3516 19.0162V20.9776Z" fill="#DFC2FF"/>
<path fill-rule="evenodd" clip-rule="evenodd" d="M30.1572 23.5999H30.8076C31.1715 23.5999 31.4683 23.3031 31.4683 22.9392V20.9777V18.3554V15.7331V13.7716C31.4683 13.4077 31.1715 13.1109 30.8076 13.1109H30.1572V7.8664H30.8076C31.1715 7.8664 31.4683 8.16314 31.4683 8.52706V9.82786C31.4683 10.1918 31.7652 10.4886 32.129 10.4886H33.4298C33.7937 10.4886 34.0904 10.7854 34.0904 11.1493V12.4501C34.0904 12.814 34.3872 13.1108 34.7511 13.1108H36.0519C36.4158 13.1108 36.7126 13.4076 36.7126 13.7715V15.733V18.3553V20.9776V22.9391C36.7126 23.303 36.4157 23.5998 36.0519 23.5998H34.7511C34.3872 23.5998 34.0904 23.8966 34.0904 24.2605V25.5613C34.0904 25.9252 33.7937 26.222 33.4298 26.222H32.129C31.7651 26.222 31.4683 26.5188 31.4683 26.8827V28.1835C31.4683 28.5475 31.1715 28.8443 30.8076 28.8443H30.1572V23.5999ZM30.1572 34.0889V31.4667H30.8076C31.1715 31.4667 31.4683 31.7636 31.4683 32.1275V33.4282C31.4683 33.7921 31.1715 34.0889 30.8076 34.0889H30.1572ZM24.9127 13.1109H25.5631C25.927 13.1109 26.2238 13.4077 26.2238 13.7716V15.0724C26.2238 15.4363 26.5207 15.7331 26.8845 15.7331H28.1853C28.5492 15.7331 28.8459 16.0299 28.8459 16.3938V18.3554V20.3169C28.8459 20.6808 28.5491 20.9776 28.1853 20.9776H26.8845C26.5206 20.9776 26.2238 21.2744 26.2238 21.6383V22.9391C26.2238 23.303 25.927 23.5998 25.5631 23.5998H24.9127V13.1109ZM24.9127 26.2222V28.8444H26.2238H28.846L30.1572 28.8443V23.5999H29.5067C29.1428 23.5999 28.846 23.8967 28.846 24.2606V25.5614C28.846 25.9253 28.5492 26.2222 28.1854 26.2222H26.2238H24.9127ZM30.1572 13.1109V7.8664H28.846H26.8845C26.5206 7.8664 26.2238 7.56951 26.2238 7.20559V5.90485C26.2238 5.54093 25.927 5.24414 25.5631 5.24414H24.9127V10.4887H26.2238H28.1854C28.5493 10.4887 28.846 10.7855 28.846 11.1494V12.4502C28.846 12.8141 29.1428 13.1109 29.5067 13.1109H30.1572ZM30.1572 31.4667V34.0889L29.5067 34.0888C29.1428 34.0888 28.846 33.792 28.846 33.4281V32.1274C28.846 31.7635 29.1428 31.4666 29.5067 31.4666L30.1572 31.4667ZM24.9127 36.7112V34.0889H25.5631C25.927 34.0889 26.2238 34.3857 26.2238 34.7496V36.0504C26.2238 36.4143 25.927 36.7112 25.5631 36.7112H24.9127ZM20.9793 34.7496V36.0504C20.9793 36.4143 20.6825 36.7112 20.3186 36.7112H18.3572H17.046V31.4667H17.6965C18.0604 31.4667 18.3572 31.7636 18.3572 32.1275V33.4282C18.3572 33.7921 18.6539 34.0889 19.0178 34.0889H20.3186C20.6825 34.0889 20.9793 34.3857 20.9793 34.7496ZM17.0459 13.1109H18.357H20.9793H23.6015H24.9127V23.5998L23.6015 23.5999H21.6401C21.2762 23.5999 20.9794 23.3031 20.9794 22.9392V21.6384C20.9794 21.2745 20.6826 20.9777 20.3187 20.9777H19.0179C18.654 20.9777 18.3573 21.2745 18.3573 21.6384V23.5999V25.5614C18.3573 25.9253 18.654 26.2222 19.0179 26.2222H20.9795H23.6018H24.9127V28.8444H23.6018H20.9795H18.3573H17.0461V18.3554H18.3573H20.3187C20.6826 18.3554 20.9794 18.6522 20.9794 19.0161V20.3169C20.9794 20.6808 21.2763 20.9776 21.6401 20.9776H22.9409C23.3048 20.9776 23.6015 20.6808 23.6015 20.3169V18.3554V16.3938C23.6015 16.0299 23.3048 15.7331 22.9409 15.7331H20.9793H18.357H17.0459V13.1109ZM24.9127 10.4887H24.2623C23.8984 10.4887 23.6017 10.1919 23.6017 9.82796V8.52716C23.6017 8.16324 23.3049 7.86651 22.941 7.86651H21.6402C21.2763 7.86651 20.9795 7.56962 20.9795 7.2057V5.90495C20.9795 5.54103 21.2764 5.24424 21.6402 5.24424H23.6017L24.9127 5.24414V10.4887ZM24.9127 34.0889V36.7112H24.2623C23.8984 36.7112 23.6017 36.4143 23.6017 36.0504V34.7496C23.6017 34.3857 23.8984 34.0889 24.2623 34.0889H24.9127ZM17.0459 7.8664V5.24414H17.6964C18.0603 5.24414 18.357 5.54093 18.357 5.90485V7.20559C18.357 7.56951 18.0602 7.8664 17.6964 7.8664H17.0459ZM17.046 36.7112H16.3955C16.0315 36.7112 15.7348 36.4143 15.7348 36.0504V34.7496C15.7348 34.3857 15.438 34.0889 15.0741 34.0889H13.1125H11.8014V28.8444H12.4519C12.8158 28.8444 13.1125 29.1412 13.1125 29.5051V30.8059C13.1125 31.1698 13.4093 31.4666 13.7732 31.4666H15.7347L17.046 31.4667V36.7112ZM11.8014 13.1109H13.1125H15.7348H17.0459V15.7331H15.7348H13.7733C13.4094 15.7331 13.1126 16.0299 13.1126 16.3938V17.6946C13.1126 18.0586 12.8159 18.3554 12.452 18.3554H11.8015L11.8014 13.1109ZM17.0461 28.8444V18.3554H16.3955C16.0315 18.3554 15.7348 18.6522 15.7348 19.0161V20.3169C15.7348 20.6808 15.438 20.9776 15.0741 20.9776H13.7733C13.4094 20.9776 13.1126 21.2744 13.1126 21.6383V23.5998V25.5613C13.1126 25.9252 13.4094 26.222 13.7733 26.222H15.0741C15.438 26.222 15.7348 26.5188 15.7348 26.8827V28.1835C15.7348 28.5475 16.0317 28.8443 16.3955 28.8443L17.0461 28.8444ZM17.0459 5.24414V7.8664H16.3955C16.0315 7.8664 15.7348 7.56951 15.7348 7.20559V5.90485C15.7348 5.54093 16.0317 5.24414 16.3955 5.24414H17.0459ZM11.8014 10.4887V7.8664H12.4519C12.8158 7.8664 13.1125 8.16314 13.1125 8.52706V9.82786C13.1125 10.1918 12.8158 10.4886 12.4519 10.4886L11.8014 10.4887ZM11.8014 34.0889H11.1511C10.7871 34.0889 10.4904 33.7921 10.4904 33.4282V32.1275C10.4904 31.7636 10.1936 31.4667 9.82971 31.4667H8.52892C8.165 31.4667 7.86824 31.1699 7.86824 30.806V29.5052C7.86824 29.1413 7.57137 28.8445 7.20756 28.8445H5.90677C5.54286 28.8445 5.24609 28.5477 5.24609 28.1838V26.2223V23.6V20.9778V19.0163C5.24609 18.6524 5.54296 18.3556 5.90677 18.3556H7.20756C7.57148 18.3556 7.86824 18.0588 7.86824 17.6949V16.3941C7.86824 16.0301 8.165 15.7334 8.52892 15.7334H9.82971C10.1936 15.7334 10.4904 15.4365 10.4904 15.0726V13.7718C10.4904 13.4079 10.7873 13.1111 11.1511 13.1111L11.8014 13.1109L11.8015 18.3554L11.1511 18.3556C10.7871 18.3556 10.4904 18.6524 10.4904 19.0163V20.9778V23.6V26.2223V28.1838C10.4904 28.5477 10.7873 28.8445 11.1511 28.8445L11.8014 28.8444V34.0889ZM11.8014 7.8664V10.4887H11.1511C10.7871 10.4887 10.4904 10.1919 10.4904 9.82796V8.52716C10.4904 8.16324 10.7873 7.86651 11.1511 7.86651L11.8014 7.8664Z" fill="white"/>
</g>
<defs>
<clipPath id="clip0_54_2">
<rect width="42" height="42" fill="white"/>
</clipPath>
</defs>
</svg>
